<svg xmlns="http://www.w3.org/2000/svg" xmlns:xlink="http://www.w3.org/1999/xlink" version="1.1" width="1000" height="1000" viewBox="0 0 1000 1000" xml:space="preserve">
<desc>Created with Fabric.js 3.5.0</desc>
<defs>
</defs>
<rect x="0" y="0" width="100%" height="100%" fill="rgba(255,255,255,0)"/>
<g transform="matrix(1.1364 0 0 1.1364 500.0145 500.0145)" id="130526">
<g style="" vector-effect="non-scaling-stroke">
		<g transform="matrix(25 0 0 25 0 0)">
<path style="stroke: none; stroke-width: 1; stroke-dasharray: none; stroke-linecap: butt; stroke-dashoffset: 0; stroke-linejoin: miter; stroke-miterlimit: 4; is-custom-font: none; font-file-url: none; fill: none; fill-rule: evenodd; opacity: 1;" transform=" translate(-16, -16)" d="m 0 0 h 32 v 32 h -32 z" stroke-linecap="round"/>
</g>
		<g transform="matrix(25 0 0 25 -1.7531 -1.3007)">
<path style="stroke: none; stroke-width: 1; stroke-dasharray: none; stroke-linecap: butt; stroke-dashoffset: 0; stroke-linejoin: miter; stroke-miterlimit: 4; is-custom-font: none; font-file-url: none; fill: rgb(0,0,0); fill-rule: nonzero; opacity: 1;" transform=" translate(-15.9299, -15.948)" d="m 17.0830929 0.03277248 c 8.1190907 0 14.7619831 6.64289236 14.7619831 14.76198302 v 2.3064326 c 0 8.1190906 -6.6429288 14.761983 -14.7619831 14.761983 h -2.3064325 c -8.11909069 0 -14.76198306 -6.6428924 -14.76198306 -14.761983 v -2.3064326 c 0 -8.11909066 6.64289237 -14.76198302 14.76198306 -14.76198302 z m -0.8630324 8.0002641 l -0.2053832 -0.0002641 c -1.7102378 0 -3.4204757 0.05652851 -3.4204757 0.05652851 c -2.4979736 0 -4.52299562 2.02501761 -4.52299562 4.52298561 c 0 0 -0.05191606 1.4685349 -0.05624239 3.0447858 l -0.00028625 0.2060969 c 0 1.7648596 0.05652864 3.590089 0.05652864 3.5900891 c 0 2.497968 2.02502202 4.5229856 4.52299562 4.5229856 c 0 0 1.5990132 0.0565285 3.2508899 0.0565285 c 1.7648634 0 3.6466255 -0.0565285 3.6466255 -0.0565285 c 2.4979736 0 4.4664317 -1.9684539 4.4664317 -4.4664219 c 0 0 0.0565286 -1.8046833 0.0565286 -3.5335605 l -0.0010281 -0.4057303 c -0.0076601 -1.5511586 -0.0555357 -3.0148084 -0.0555357 -3.0148084 c 0 -2.4979681 -1.9684582 -4.46642191 -4.4664317 -4.46642191 c 0 0 -1.6282521 -0.05209668 -3.2716213 -0.05626441 z m -0.2053831 1.43969747 c 1.4024317 0 3.2005639 0.04637875 3.2005638 0.04637875 c 2.0483524 0 3.3130573 1.2647021 3.3130573 3.31305 c 0 0 0.0463789 1.7674322 0.0463789 3.1541781 c 0 1.4176885 -0.0463789 3.2469355 -0.0463789 3.2469355 c 0 2.048348 -1.2647049 3.31305 -3.3130573 3.31305 c 0 0 -1.5901757 0.0389711 -2.9699093 0.0454662 l -0.3697206 0.0009126 c -1.3545375 0 -3.0049692 -0.0463788 -3.0049692 -0.0463788 c -2.0483172 0 -3.36958592 -1.321301 -3.36958592 -3.3695785 c 0 0 -0.04637885 -1.8359078 -0.04637885 -3.2830941 c 0 -1.3545344 0.04637885 -3.061491 0.04637885 -3.061491 c 0 -2.0483479 1.32130402 -3.31305 3.36958592 -3.31305 c 0 0 1.7416035 -0.04637875 3.1440353 -0.04637875 z m -0.0000353 2.46195055 c -2.2632951 0 -4.0980441 1.8347448 -4.0980441 4.098035 s 1.8347489 4.098035 4.0980441 4.098035 s 4.0980441 -1.8347448 4.0980441 -4.098035 c 0 -2.2632901 -1.8347489 -4.098035 -4.0980441 -4.098035 z m 0 1.4313625 c 1.4727754 0 2.6666784 1.1939004 2.6666784 2.6666725 s -1.193903 2.6666726 -2.6666784 2.6666726 c -1.4727401 0 -2.6666784 -1.1939005 -2.6666784 -2.6666726 s 1.1939031 -2.6666725 2.6666784 -2.6666725 z m 4.2941322 -2.5685935 c -0.5468547 0 -0.9902027 0.4455321 -0.9902027 0.9950991 c 0 0.5495671 0.443348 0.9950639 0.9902027 0.9950639 c 0.5468546 0 0.9901674 -0.4454968 0.9901674 -0.9950639 c 0 -0.5496023 -0.4433128 -0.9950991 -0.9901674 -0.9950991 z" stroke-linecap="round"/>
</g>
</g>
</g>
</svg>